<?xml version="1.0" encoding="UTF-8"?>
<svg width="640" height="480" xmlns="http://www.w3.org/2000/svg" xmlns:svg="http://www.w3.org/2000/svg">
 <title>search icon</title>
 <metadata id="metadata12220">image/svg+xmlSergio Luiz Araujo Silvasearchiconsinformaticcomputer</metadata>
 <g>
  <title>Layer 1</title>
  <path fill="#fc7a24" stroke-width="9.756173" id="path12423" d="m189.939,126.086c-43.273,43.272 -43.379,114.159 -0.10599,157.43201c36.66299,36.66302 93.20199,42.25 135.92099,16.76599l76.34399,74.23498c10.50699,10.198 27.08499,9.82105 37.11698,-0.84399c10.03302,-10.66498 9.77001,-27.44599 -0.73798,-37.64398l-75.18298,-72.86402c26.36099,-42.84698 21.00799,-100.04498 -16.02802,-137.08099c-43.27298,-43.27301 -114.05499,-43.27301 -157.32699,0l0,0zm31.73898,31.73901c26.10202,-26.10202 67.74603,-26.10202 93.84802,0c26.10199,26.10199 26.10199,67.74597 0,93.84796c-26.10199,26.10205 -67.746,26.10205 -93.84802,0c-26.10199,-26.10199 -26.10199,-67.74597 0,-93.84796z"/>
 </g>
</svg>